<svg width="536" height="767" viewBox="0 0 536 767" fill="none" xmlns="http://www.w3.org/2000/svg">
<g clip-path="url(#clip0_6_589)">
<mask id="mask0_6_589" style="mask-type:luminance" maskUnits="userSpaceOnUse" x="0" y="0" width="513" height="256">
<path d="M0 0H512.999V255.987H0V0Z" fill="white"/>
</mask>
<g mask="url(#mask0_6_589)">
<path d="M11.0594 255.747H0.155248C0.137503 222.591 6.73409 188.842 19.6523 157.844C32.5305 126.807 51.5217 98.5188 75.1531 74.9373C98.767 51.3382 127.088 32.3756 158.167 19.5122C189.212 6.60898 223.006 0.0265852 256.207 0.0443167C289.407 0.0265852 323.207 6.60898 354.241 19.5122C385.326 32.3756 413.651 51.3382 437.264 74.9373C460.896 98.5188 479.883 126.807 492.761 157.844C505.683 188.842 512.28 222.591 512.263 255.747H501.349C501.376 223.988 495.051 191.7 482.683 162.015C470.358 132.313 452.174 105.234 429.537 82.6501C406.921 60.0439 379.79 41.888 350.046 29.5787C320.34 17.225 287.987 10.913 256.185 10.9308C224.386 10.913 192.051 17.225 162.324 29.5787C132.58 41.888 105.47 60.0439 82.8544 82.6501C60.2388 105.234 42.0549 132.313 29.7313 162.015C17.3631 191.683 11.0416 223.988 11.0594 255.747Z" fill="#007848" fill-opacity="0.4"/>
</g>
<path d="M241.656 255.747H230.748C230.788 252.13 231.426 249.054 232.656 246.045C233.884 243.057 235.778 240.198 238.218 237.76C240.658 235.348 243.515 233.438 246.514 232.21C249.526 230.982 252.605 230.344 256.225 230.308C259.858 230.344 262.936 230.982 265.944 232.21C268.934 233.438 271.804 235.322 274.244 237.76C276.657 240.198 278.57 243.057 279.798 246.045C281.031 249.054 281.666 252.13 281.706 255.747H270.806C270.762 253.522 270.402 251.918 269.723 250.22C269.04 248.571 267.962 246.895 266.539 245.473C265.119 244.054 263.442 242.977 261.787 242.294C260.11 241.616 258.478 241.257 256.252 241.212C254.024 241.257 252.41 241.616 250.711 242.294C249.06 242.977 247.383 244.054 245.963 245.473C244.54 246.895 243.457 248.571 242.779 250.22C242.06 251.891 241.691 253.522 241.656 255.747Z" fill="#007848" fill-opacity="0.4"/>
<path d="M32.0203 255.747H21.1162C21.094 225.286 27.1627 194.303 39.0028 165.872C50.8208 137.397 68.2594 111.422 89.9612 89.7511C111.667 68.0713 137.65 50.66 166.193 38.8605C194.682 27.0166 225.677 20.9794 256.185 20.9971C286.692 20.9794 317.715 27.0344 346.181 38.8605C374.697 50.66 400.706 68.0713 422.413 89.7511C444.115 111.422 461.553 137.379 473.37 165.872C485.229 194.33 491.279 225.286 491.253 255.747H480.349C480.371 226.678 474.577 197.17 463.292 170.047C452.029 142.889 435.397 118.12 414.685 97.4594C394.004 76.7858 369.205 60.1724 342.002 48.927C314.849 37.6282 285.295 31.8659 256.185 31.8836C227.078 31.8659 197.524 37.6504 170.367 48.927C143.169 60.1724 118.37 76.7858 97.6845 97.4594C76.9765 118.12 60.3452 142.889 49.0818 170.047C37.7918 197.144 32.0203 226.66 32.0203 255.747Z" fill="#007848" fill-opacity="0.4"/>
<path d="M73.9422 255.747H63.038C63.038 230.64 68.0022 205.26 77.7395 181.914C87.4325 158.518 101.775 137.189 119.626 119.365C137.463 101.551 158.85 87.229 182.247 77.5482C205.648 67.8187 231.067 62.863 256.185 62.863C281.328 62.863 306.744 67.8187 330.118 77.5482C353.545 87.229 374.905 101.551 392.747 119.365C410.591 137.189 424.933 158.545 434.634 181.914C444.367 205.282 449.335 230.667 449.335 255.747H438.431C438.431 232.041 433.738 208.119 424.556 186.089C415.407 164.033 401.873 143.886 385.047 127.06C368.207 110.239 348.031 96.7412 325.944 87.6102C303.883 78.4347 279.9 73.7539 256.185 73.7539C232.447 73.7539 208.492 78.4347 186.43 87.6102C164.342 96.7412 144.167 110.256 127.327 127.06C110.478 143.886 96.9614 164.033 87.8185 186.089C78.6356 208.102 73.9422 232.041 73.9422 255.747Z" fill="#007848" fill-opacity="0.4"/>
<path d="M52.9857 255.747H42.0771C42.0549 227.977 47.5735 199.794 58.3711 173.886C69.1288 147.951 85.0192 124.285 104.791 104.543C124.563 84.7911 148.266 68.9224 174.23 58.1822C200.173 47.3977 228.374 41.888 256.207 41.9102C284.022 41.888 312.241 47.3977 338.187 58.1822C364.153 68.9224 387.854 84.7911 407.622 104.543C427.395 124.285 443.289 147.951 454.043 173.886C464.841 199.794 470.358 227.95 470.336 255.747H459.432C459.454 229.369 454.212 202.631 443.968 178.057C433.765 153.461 418.677 131.001 399.922 112.247C381.143 93.4967 358.66 78.4347 334.021 68.2486C309.419 58.0093 282.664 52.801 256.225 52.801C229.815 52.7745 203.043 58.0093 178.432 68.2486C153.798 78.4347 131.31 93.4967 112.537 112.247C93.7585 131.001 78.6755 153.461 68.4678 178.057C58.2248 202.631 52.9857 229.351 52.9857 255.747Z" fill="#007848" fill-opacity="0.4"/>
<path d="M94.9074 255.747H84.0033C84.0033 233.332 88.4352 210.748 97.0901 189.919C105.723 169.09 118.517 150.047 134.429 134.157C150.342 118.27 169.414 105.491 190.272 96.8698C211.104 88.1997 233.737 83.7759 256.185 83.7981C278.631 83.7981 301.251 88.2263 322.102 96.8698C342.96 105.491 362.032 118.27 377.939 134.157C393.852 150.047 406.651 169.09 415.284 189.919C423.957 210.725 428.397 233.332 428.371 255.747H417.466C417.466 234.737 413.309 213.588 405.205 194.095C397.121 174.578 385.154 156.741 370.239 141.848C355.329 126.958 337.459 115.004 317.927 106.936C298.408 98.8379 277.234 94.689 256.185 94.689C235.139 94.689 213.966 98.8379 194.447 106.936C174.909 115.004 157.044 126.958 142.131 141.848C127.211 156.741 115.247 174.578 107.169 194.095C99.0642 213.588 94.9074 234.737 94.9074 255.747Z" fill="#007848" fill-opacity="0.4"/>
<path d="M115.886 255.747H104.982C104.982 236.023 108.886 216.213 116.485 197.95C124.054 179.666 135.281 162.929 149.282 148.97C163.264 135.003 180.02 123.775 198.332 116.209C216.623 108.625 236.457 104.729 256.207 104.729C275.961 104.729 295.796 108.625 314.085 116.209C332.389 123.775 349.153 134.981 363.136 148.97C377.115 162.929 388.36 179.666 395.933 197.95C403.528 216.213 407.432 236.023 407.432 255.747H396.527C396.527 237.427 392.921 219.054 385.853 202.126C378.836 185.175 368.415 169.644 355.435 156.679C342.451 143.714 326.897 133.315 309.924 126.298C292.952 119.263 274.578 115.642 256.225 115.642C237.876 115.642 219.48 119.241 202.534 126.298C185.56 133.315 170.008 143.714 157.027 156.679C144.038 169.644 133.622 185.175 126.599 202.126C119.493 219.054 115.886 237.4 115.886 255.747Z" fill="#007848" fill-opacity="0.4"/>
<path d="M136.851 255.747H125.943C125.943 238.718 129.292 221.682 135.853 205.961C142.361 190.22 152.036 175.814 164.107 163.753C176.183 151.696 190.605 142.06 206.371 135.531C222.115 129.011 239.149 125.66 256.225 125.641C273.286 125.641 290.339 128.993 306.083 135.531C321.849 142.038 336.276 151.696 348.347 163.753C360.416 175.814 370.074 190.22 376.609 205.961C383.143 221.682 386.492 238.695 386.511 255.747H375.606C375.606 240.092 372.532 224.542 366.548 210.136C360.59 195.726 351.722 182.504 340.672 171.466C329.612 160.429 316.375 151.573 301.944 145.62C287.522 139.645 271.946 136.572 256.269 136.572C240.596 136.595 225.016 139.645 210.593 145.62C196.168 151.573 182.93 160.429 171.875 171.466C160.824 182.504 151.957 195.726 145.995 210.136C139.921 224.52 136.851 240.092 136.851 255.747Z" fill="#007848" fill-opacity="0.4"/>
<path d="M157.808 255.747H146.904C146.922 241.381 149.73 227.17 155.2 213.992C160.652 200.81 168.778 188.69 178.92 178.567C189.061 168.443 201.194 160.344 214.392 154.879C227.584 149.41 241.843 146.595 256.207 146.595C270.593 146.612 284.829 149.41 298.022 154.879C311.215 160.322 323.357 168.443 333.494 178.567C343.635 188.69 351.74 200.81 357.214 213.992C362.688 227.17 365.51 241.407 365.51 255.747H354.61C354.583 242.782 352.059 230.012 347.135 218.167C342.234 206.324 334.918 195.407 325.792 186.276C316.654 177.166 305.724 169.852 293.865 164.963C281.986 160.044 269.191 157.526 256.225 157.503C243.245 157.526 230.455 160.044 218.592 164.963C206.735 169.852 195.809 177.166 186.661 186.276C177.536 195.407 170.22 206.324 165.318 218.167C160.332 230.012 157.808 242.782 157.808 255.747Z" fill="#007848" fill-opacity="0.4"/>
<path d="M178.773 255.747H167.87C167.887 244.072 170.158 232.631 174.572 221.997C178.982 211.364 185.534 201.572 193.746 193.354C201.957 185.154 211.778 178.612 222.412 174.201C233.059 169.795 244.518 167.53 256.207 167.503C267.901 167.53 279.354 169.795 290.006 174.201C300.652 178.612 310.452 185.154 318.664 193.354C326.875 201.554 333.432 211.364 337.846 221.997C342.26 232.631 344.532 244.072 344.549 255.747H333.644C333.627 245.473 331.626 235.499 327.766 226.173C323.908 216.868 318.154 208.27 310.962 201.062C303.75 193.864 295.138 188.123 285.823 184.285C276.489 180.429 266.499 178.438 256.207 178.417C245.92 178.438 235.929 180.429 226.586 184.285C217.279 188.142 208.664 193.881 201.446 201.062C194.238 208.27 188.484 216.868 184.647 226.173C180.765 235.473 178.791 245.45 178.773 255.747Z" fill="#007848" fill-opacity="0.4"/>
<path d="M199.73 255.747H188.826C188.848 246.762 190.569 238.101 193.941 230.012C197.29 221.936 202.299 214.432 208.58 208.164C214.857 201.895 222.367 196.891 230.455 193.54C238.56 190.198 247.21 188.482 256.225 188.438C265.225 188.457 273.902 190.176 282.008 193.54C290.086 196.891 297.601 201.895 303.883 208.164C310.155 214.432 315.163 221.936 318.513 230.012C321.87 238.101 323.584 246.745 323.628 255.747H312.723C312.706 248.168 311.26 240.96 308.461 234.182C305.661 227.423 301.46 221.129 296.199 215.854C290.916 210.575 284.611 206.386 277.847 203.606C271.077 200.81 263.868 199.369 256.252 199.351C248.657 199.369 241.439 200.81 234.647 203.606C227.886 206.404 221.586 210.601 216.299 215.854C211.015 221.129 206.815 227.423 204.038 234.182C201.194 240.942 199.752 248.141 199.73 255.747Z" fill="#007848" fill-opacity="0.4"/>
<path d="M220.691 255.747H209.787C209.809 249.435 210.997 243.589 213.287 238.039C215.58 232.508 219.036 227.317 223.383 222.973C227.736 218.629 232.934 215.176 238.471 212.888C244.034 210.601 249.907 209.418 256.207 209.391C262.533 209.418 268.384 210.601 273.942 212.888C279.479 215.176 284.683 218.629 289.03 222.973C293.373 227.317 296.837 232.508 299.127 238.039C301.416 243.589 302.605 249.457 302.627 255.747H291.722C291.679 250.832 290.787 246.43 289.048 242.214C287.313 238.017 284.683 234.032 281.328 230.685C277.971 227.339 273.987 224.706 269.786 222.973C265.558 221.235 261.131 220.322 256.225 220.305C251.305 220.348 246.891 221.235 242.672 222.973C238.471 224.706 234.483 227.339 231.129 230.685C227.779 234.032 225.149 238.017 223.41 242.214C221.623 246.43 220.708 250.832 220.691 255.747Z" fill="#007848" fill-opacity="0.4"/>
<path d="M230.748 255.747H241.656V757.543H230.748V255.747Z" fill="#007848" fill-opacity="0.4"/>
<mask id="mask1_6_589" style="mask-type:luminance" maskUnits="userSpaceOnUse" x="0" y="255" width="12" height="503">
<path d="M0 255.123H11.6361V757.614H0V255.123Z" fill="white"/>
</mask>
<g mask="url(#mask1_6_589)">
<path d="M0.155212 255.747H11.0593V757.543H0.155212V255.747Z" fill="#007848" fill-opacity="0.4"/>
</g>
<path d="M209.787 255.747H220.691V757.543H209.787V255.747Z" fill="#007848" fill-opacity="0.4"/>
<path d="M167.843 255.747H178.746V757.543H167.843V255.747Z" fill="#007848" fill-opacity="0.4"/>
<path d="M188.808 255.747H199.712V757.543H188.808V255.747Z" fill="#007848" fill-opacity="0.4"/>
<path d="M146.886 255.747H157.79V757.543H146.886V255.747Z" fill="#007848" fill-opacity="0.4"/>
<path d="M125.921 255.747H136.826V757.543H125.921V255.747Z" fill="#007848" fill-opacity="0.4"/>
<path d="M104.96 255.747H115.864V757.543H104.96V255.747Z" fill="#007848" fill-opacity="0.4"/>
<path d="M84.0033 255.747H94.9074V757.543H84.0033V255.747Z" fill="#007848" fill-opacity="0.4"/>
<path d="M63.038 255.747H73.9422V757.543H63.038V255.747Z" fill="#007848" fill-opacity="0.4"/>
<path d="M42.0771 255.747H52.9857V757.543H42.0771V255.747Z" fill="#007848" fill-opacity="0.4"/>
<path d="M21.1162 255.747H32.0203V757.543H21.1162V255.747Z" fill="#007848" fill-opacity="0.4"/>
<mask id="mask2_6_589" style="mask-type:luminance" maskUnits="userSpaceOnUse" x="269" y="513" width="255" height="254">
<path d="M269.005 513.147H523.193V766.337H269.005V513.147Z" fill="white"/>
</mask>
<g mask="url(#mask2_6_589)">
<path d="M511.562 513.4H522.462C522.484 546.206 515.95 579.57 503.178 610.23C490.446 640.931 471.65 668.896 448.294 692.224C424.933 715.571 396.931 734.321 366.189 747.034C335.485 759.79 302.054 766.311 269.236 766.294V755.407C300.675 755.425 332.646 749.197 362.01 736.972C391.412 724.809 418.229 706.838 440.592 684.512C462.955 662.18 480.947 635.425 493.121 606.033C505.342 576.733 511.579 544.805 511.562 513.4Z" fill="#007848" fill-opacity="0.4"/>
</g>
<path d="M280.988 513.4H291.891C291.847 516.672 291.297 519.354 290.197 522.026C289.11 524.676 287.415 527.243 285.25 529.402C283.086 531.565 280.499 533.259 277.864 534.336C275.198 535.417 272.478 535.994 269.236 536.029V525.143C271.103 525.098 272.35 524.823 273.69 524.273C275.007 523.746 276.365 522.85 277.55 521.685C278.716 520.519 279.586 519.145 280.135 517.828C280.646 516.521 280.943 515.271 280.988 513.4Z" fill="#007848" fill-opacity="0.4"/>
<path d="M490.596 513.4H501.501C501.523 543.516 495.543 574.105 483.831 602.216C472.16 630.377 454.912 656.037 433.486 677.433C412.054 698.851 386.347 716.058 358.168 727.712C330.016 739.405 299.384 745.385 269.236 745.358V734.471C297.978 734.489 327.172 728.789 353.989 717.645C380.845 706.546 405.334 690.128 425.784 669.721C446.213 649.322 462.658 624.849 473.774 598.027C484.914 571.268 490.623 542.115 490.596 513.4Z" fill="#007848" fill-opacity="0.4"/>
<path d="M448.674 513.4H459.579C459.579 538.152 454.677 563.151 445.09 586.183C435.544 609.233 421.415 630.27 403.825 647.836C386.24 665.399 365.168 679.512 342.092 689.042C319.023 698.625 293.99 703.515 269.209 703.515V692.628C292.592 692.628 316.179 688.009 337.908 678.98C359.654 669.999 379.536 656.693 396.102 640.124C412.693 623.555 426.019 603.723 435.011 582.008C444.07 560.311 448.674 536.756 448.674 513.4Z" fill="#007848" fill-opacity="0.4"/>
<path d="M469.64 513.4H480.545C480.562 540.825 475.114 568.639 464.459 594.194C453.851 619.787 438.152 643.134 418.651 662.629C399.136 682.119 375.758 697.774 350.126 708.364C324.524 719.006 296.687 724.449 269.236 724.427V713.537C295.285 713.563 321.68 708.391 345.95 698.306C370.266 688.262 392.433 673.413 410.931 654.911C429.457 636.44 444.327 614.277 454.384 590.013C464.48 565.798 469.657 539.446 469.64 513.4Z" fill="#007848" fill-opacity="0.4"/>
<path d="M427.713 513.4H438.618C438.618 535.457 434.27 557.682 425.739 578.169C417.231 598.657 404.676 617.411 389.021 633.049C373.362 648.683 354.61 661.25 334.066 669.721C313.549 678.24 291.297 682.606 269.209 682.584V671.693C289.9 671.693 310.687 667.623 329.892 659.659C349.091 651.715 366.636 639.974 381.294 625.336C395.955 610.696 407.707 593.178 415.661 573.998C423.641 554.85 427.713 534.065 427.713 513.4Z" fill="#007848" fill-opacity="0.4"/>
<path d="M406.757 513.4H417.662C417.662 532.767 413.837 552.221 406.372 570.141C398.923 588.085 387.912 604.507 374.187 618.218C360.461 631.928 344.021 642.947 326.051 650.354C308.101 657.815 288.626 661.63 269.236 661.63V650.74C287.224 650.74 305.235 647.198 321.872 640.292C338.502 633.409 353.759 623.214 366.486 610.5C379.213 597.792 389.421 582.579 396.319 565.949C403.213 549.362 406.757 531.375 406.757 513.4Z" fill="#007848" fill-opacity="0.4"/>
<path d="M385.791 513.4H396.696C396.696 530.076 393.408 546.734 387.003 562.137C380.615 577.54 371.152 591.654 359.356 603.427C347.566 615.208 333.409 624.676 318.007 631.033C302.605 637.433 285.929 640.696 269.209 640.718V629.832C284.506 629.832 299.743 626.817 313.828 620.992C327.918 615.164 340.835 606.52 351.656 595.736C362.454 584.956 371.108 572.031 376.941 557.962C382.784 543.893 385.791 528.702 385.791 513.4Z" fill="#007848" fill-opacity="0.4"/>
<path d="M364.83 513.4H375.74C375.713 527.411 372.976 541.263 367.652 554.105C362.329 566.946 354.415 578.746 344.549 588.621C334.66 598.493 322.847 606.373 309.986 611.693C297.131 617.03 283.236 619.765 269.236 619.765V608.87C281.857 608.851 294.269 606.413 305.812 601.627C317.346 596.862 327.962 589.761 336.83 580.905C345.698 572.052 352.8 561.437 357.574 549.934C362.374 538.432 364.809 526.012 364.83 513.4Z" fill="#007848" fill-opacity="0.4"/>
<path d="M343.869 513.4H354.774C354.757 524.721 352.564 535.776 348.284 546.095C344.021 556.392 337.655 565.887 329.714 573.83C321.76 581.774 312.258 588.112 301.944 592.371C291.639 596.648 280.539 598.834 269.209 598.853V587.961C279.137 587.944 288.768 586.033 297.77 582.304C306.744 578.599 315.058 573.068 321.995 566.117C328.933 559.171 334.497 550.887 338.205 541.92C341.94 532.944 343.848 523.316 343.869 513.4Z" fill="#007848" fill-opacity="0.4"/>
<path d="M322.91 513.4H333.813C333.796 522.026 332.137 530.311 328.916 538.068C325.709 545.802 320.917 553.001 314.889 559.021C308.865 565.035 301.673 569.823 293.91 573.023C286.146 576.25 277.847 577.882 269.209 577.917V567.026C276.445 567.008 283.299 565.634 289.726 562.983C296.155 560.338 302.139 556.348 307.166 551.325C312.174 546.312 316.179 540.333 318.836 533.914C321.508 527.474 322.891 520.626 322.91 513.4Z" fill="#007848" fill-opacity="0.4"/>
<path d="M301.944 513.4H312.857C312.83 519.335 311.708 524.845 309.565 530.058C307.418 535.248 304.175 540.121 300.085 544.206C295.986 548.303 291.111 551.543 285.908 553.684C280.691 555.842 275.198 556.946 269.236 556.964V546.072C273.77 546.056 277.824 545.209 281.729 543.618C285.592 542.027 289.287 539.589 292.384 536.503C295.48 533.404 297.898 529.744 299.509 525.86C301.074 522.008 301.909 517.961 301.944 513.4Z" fill="#007848" fill-opacity="0.4"/>
<mask id="mask3_6_589" style="mask-type:luminance" maskUnits="userSpaceOnUse" x="269" y="264" width="267" height="12">
<path d="M269.005 264.201H535.406V275.548H269.005V264.201Z" fill="white"/>
</mask>
<g mask="url(#mask3_6_589)">
<path d="M269.236 264.479H790.499V275.37H269.236V264.479Z" fill="#007848" fill-opacity="0.4"/>
</g>
<mask id="mask4_6_589" style="mask-type:luminance" maskUnits="userSpaceOnUse" x="269" y="494" width="267" height="12">
<path d="M269.005 494.553H535.406V505.9H269.005V494.553Z" fill="white"/>
</mask>
<g mask="url(#mask4_6_589)">
<path d="M269.236 494.739H790.499V505.626H269.236V494.739Z" fill="#007848" fill-opacity="0.4"/>
</g>
<mask id="mask5_6_589" style="mask-type:luminance" maskUnits="userSpaceOnUse" x="269" y="284" width="267" height="14">
<path d="M269.005 284.626H535.406V297.108H269.005V284.626Z" fill="white"/>
</mask>
<g mask="url(#mask5_6_589)">
<path d="M269.236 285.415H790.499V296.301H269.236V285.415Z" fill="#007848" fill-opacity="0.4"/>
</g>
<mask id="mask6_6_589" style="mask-type:luminance" maskUnits="userSpaceOnUse" x="269" y="326" width="267" height="13">
<path d="M269.005 326.611H535.406V338.531H269.005V326.611Z" fill="white"/>
</mask>
<g mask="url(#mask6_6_589)">
<path d="M269.236 327.276H790.499V338.167H269.236V327.276Z" fill="#007848" fill-opacity="0.4"/>
</g>
<mask id="mask7_6_589" style="mask-type:luminance" maskUnits="userSpaceOnUse" x="269" y="306" width="267" height="12">
<path d="M269.005 306.186H535.406V317.533H269.005V306.186Z" fill="white"/>
</mask>
<g mask="url(#mask7_6_589)">
<path d="M269.236 306.341H790.499V317.236H269.236V306.341Z" fill="#007848" fill-opacity="0.4"/>
</g>
<mask id="mask8_6_589" style="mask-type:luminance" maskUnits="userSpaceOnUse" x="269" y="348" width="267" height="12">
<path d="M269.005 348.171H535.406V359.168H269.005V348.171Z" fill="white"/>
</mask>
<g mask="url(#mask8_6_589)">
<path d="M269.236 348.211H790.499V359.098H269.236V348.211Z" fill="#007848" fill-opacity="0.4"/>
</g>
<mask id="mask9_6_589" style="mask-type:luminance" maskUnits="userSpaceOnUse" x="269" y="368" width="267" height="14">
<path d="M269.005 368.694H535.406V381.079H269.005V368.694Z" fill="white"/>
</mask>
<g mask="url(#mask9_6_589)">
<path d="M269.236 369.146H790.499V380.032H269.236V369.146Z" fill="#007848" fill-opacity="0.4"/>
</g>
<mask id="mask10_6_589" style="mask-type:luminance" maskUnits="userSpaceOnUse" x="269" y="389" width="267" height="13">
<path d="M269.005 389.328H535.406V401.505H269.005V389.328Z" fill="white"/>
</mask>
<g mask="url(#mask10_6_589)">
<path d="M269.236 390.072H790.499V400.968H269.236V390.072Z" fill="#007848" fill-opacity="0.4"/>
</g>
<mask id="mask11_6_589" style="mask-type:luminance" maskUnits="userSpaceOnUse" x="269" y="410" width="267" height="12">
<path d="M269.005 410.583H535.406V421.93H269.005V410.583Z" fill="white"/>
</mask>
<g mask="url(#mask11_6_589)">
<path d="M269.236 411.008H790.499V421.894H269.236V411.008Z" fill="#007848" fill-opacity="0.4"/>
</g>
<mask id="mask12_6_589" style="mask-type:luminance" maskUnits="userSpaceOnUse" x="269" y="431" width="267" height="13">
<path d="M269.005 431.008H535.406V443.303H269.005V431.008Z" fill="white"/>
</mask>
<g mask="url(#mask12_6_589)">
<path d="M269.236 431.942H790.499V442.829H269.236V431.942Z" fill="#007848" fill-opacity="0.4"/>
</g>
<mask id="mask13_6_589" style="mask-type:luminance" maskUnits="userSpaceOnUse" x="269" y="452" width="267" height="12">
<path d="M269.005 452.824H535.406V463.915H269.005V452.824Z" fill="white"/>
</mask>
<g mask="url(#mask13_6_589)">
<path d="M269.236 452.878H790.499V463.765H269.236V452.878Z" fill="#007848" fill-opacity="0.4"/>
</g>
<mask id="mask14_6_589" style="mask-type:luminance" maskUnits="userSpaceOnUse" x="269" y="473" width="267" height="13">
<path d="M269.005 473.463H535.406V485.475H269.005V473.463Z" fill="white"/>
</mask>
<g mask="url(#mask14_6_589)">
<path d="M269.236 473.804H790.499V484.699H269.236V473.804Z" fill="#007848" fill-opacity="0.4"/>
</g>
</g>
<defs>
<clipPath id="clip0_6_589">
<rect width="536" height="767" fill="white"/>
</clipPath>
</defs>
</svg>
