<svg width="423" height="89" viewBox="0 0 423 89" fill="none" xmlns="http://www.w3.org/2000/svg">
<path d="M38.016 0.983994C43.4773 0.983994 48.32 1.58133 52.544 2.77599C56.8107 3.928 60.2453 5.16533 62.848 6.488C65.4933 7.81066 67.1147 8.70666 67.712 9.17599L56 29.016C55.3173 28.504 54.1227 27.8 52.416 26.904C50.752 25.9653 48.8747 25.1333 46.784 24.408C44.6933 23.6827 42.688 23.32 40.768 23.32C38.5067 23.32 36.6293 23.64 35.136 24.28C33.6427 24.8773 32.896 25.9227 32.896 27.416C32.896 28.44 33.3013 29.3787 34.112 30.232C34.9227 31.0853 36.288 31.96 38.208 32.856C40.1707 33.752 42.8373 34.776 46.208 35.928C49.4933 36.9947 52.5013 38.3173 55.232 39.896C57.9627 41.4747 60.3093 43.352 62.272 45.528C64.2773 47.704 65.8347 50.2 66.944 53.016C68.0533 55.832 68.608 59.0107 68.608 62.552C68.608 67.2453 67.6267 71.256 65.664 74.584C63.744 77.8693 61.1627 80.536 57.92 82.584C54.6773 84.632 51.0507 86.1253 47.04 87.064C43.072 88.0453 39.04 88.536 34.944 88.536C28.672 88.536 23.0827 87.8533 18.176 86.488C13.312 85.1227 9.36533 83.6507 6.336 82.072C3.34933 80.4507 1.51467 79.2987 0.832 78.616L12.928 57.944C13.3973 58.328 14.4 58.9467 15.936 59.8C17.5147 60.6533 19.392 61.5493 21.568 62.488C23.7867 63.4267 26.0693 64.2373 28.416 64.92C30.7627 65.56 32.9387 65.88 34.944 65.88C37.632 65.88 39.616 65.496 40.896 64.728C42.176 63.96 42.816 62.8507 42.816 61.4C42.816 60.376 42.4107 59.416 41.6 58.52C40.832 57.624 39.424 56.6853 37.376 55.704C35.3707 54.68 32.512 53.5067 28.8 52.184C25.216 50.8613 21.8027 49.1333 18.56 47C15.3173 44.8667 12.672 42.0933 10.624 38.68C8.576 35.2667 7.552 31 7.552 25.88C7.552 20.6747 9.00267 16.216 11.904 12.504C14.8053 8.792 18.5813 5.95466 23.232 3.992C27.8827 1.98666 32.8107 0.983994 38.016 0.983994ZM125.127 87H97.479L67.975 2.52H95.943L111.303 54.936L126.663 2.52H154.631L125.127 87ZM251.525 87H222.149L210.373 36.952H214.661L202.821 87H173.317L152.965 2.52H181.509L189.829 54.232H189.509L203.717 2.52H221.253L235.461 54.232H235.141L243.461 2.52H272.005L251.525 87ZM275.271 2.52H331.975V24.024H300.039V34.264H331.975V55.064H300.039V65.496H331.975V87H275.271V2.52ZM361.033 25.048L362.889 25.368V87H338.121V2.52H371.593L399.177 63.96L397.321 64.344V2.52H422.089V87H388.425L361.033 25.048Z" fill="black"/>
</svg>
